<svg xmlns="http://www.w3.org/2000/svg" width="313" height="344" viewBox="0 0 313 344"
    fill="none">
    <path
        d="M222.174 -13C222.174 -13 222.155 -13 222.144 -13C99.4574 -13 0 85.7228 0 207.507C0 255.691 15.5816 300.256 41.9972 336.536L207.756 564.17C210.984 568.598 216.218 571.488 222.148 571.488C222.216 571.488 222.281 571.48 222.35 571.48C228.192 571.415 233.345 568.545 236.536 564.166L402.29 336.532C428.71 300.256 444.287 255.687 444.287 207.503C444.291 85.7342 344.849 -12.9848 222.174 -13ZM222.148 372.933C130.104 372.933 55.4862 298.866 55.4862 207.503C55.4862 116.139 130.104 42.0726 222.148 42.0726C314.191 42.0726 388.809 116.139 388.809 207.503C388.809 298.866 314.191 372.933 222.148 372.933Z"
        fill="white" fill-opacity="0.12" />
</svg>