<svg xmlns="http://www.w3.org/2000/svg" width="16" height="16" viewBox="0 0 16 16" fill="none">
    <path
        d="M4.66665 2.66668C4.66665 2.31305 4.80712 1.97392 5.05717 1.72387C5.30722 1.47382 5.64636 1.33334 5.99998 1.33334H9.99998C10.3536 1.33334 10.6927 1.47382 10.9428 1.72387C11.1928 1.97392 11.3333 2.31305 11.3333 2.66668V4.00001H14C14.1768 4.00001 14.3464 4.07025 14.4714 4.19527C14.5964 4.3203 14.6666 4.48987 14.6666 4.66668C14.6666 4.84349 14.5964 5.01306 14.4714 5.13808C14.3464 5.26311 14.1768 5.33334 14 5.33334H13.2873L12.7093 13.428C12.6854 13.7644 12.5348 14.0792 12.2881 14.3091C12.0413 14.5389 11.7166 14.6667 11.3793 14.6667H4.61998C4.28274 14.6667 3.95802 14.5389 3.71124 14.3091C3.46445 14.0792 3.31392 13.7644 3.28998 13.428L2.71331 5.33334H1.99998C1.82317 5.33334 1.6536 5.26311 1.52858 5.13808C1.40355 5.01306 1.33331 4.84349 1.33331 4.66668C1.33331 4.48987 1.40355 4.3203 1.52858 4.19527C1.6536 4.07025 1.82317 4.00001 1.99998 4.00001H4.66665V2.66668ZM5.99998 4.00001H9.99998V2.66668H5.99998V4.00001ZM4.04931 5.33334L4.62065 13.3333H11.38L11.9513 5.33334H4.04931ZM6.66665 6.66668C6.84346 6.66668 7.01303 6.73691 7.13805 6.86194C7.26307 6.98696 7.33331 7.15653 7.33331 7.33334V11.3333C7.33331 11.5102 7.26307 11.6797 7.13805 11.8047C7.01303 11.9298 6.84346 12 6.66665 12C6.48983 12 6.32027 11.9298 6.19524 11.8047C6.07022 11.6797 5.99998 11.5102 5.99998 11.3333V7.33334C5.99998 7.15653 6.07022 6.98696 6.19524 6.86194C6.32027 6.73691 6.48983 6.66668 6.66665 6.66668ZM9.33331 6.66668C9.51012 6.66668 9.67969 6.73691 9.80472 6.86194C9.92974 6.98696 9.99998 7.15653 9.99998 7.33334V11.3333C9.99998 11.5102 9.92974 11.6797 9.80472 11.8047C9.67969 11.9298 9.51012 12 9.33331 12C9.1565 12 8.98693 11.9298 8.86191 11.8047C8.73688 11.6797 8.66665 11.5102 8.66665 11.3333V7.33334C8.66665 7.15653 8.73688 6.98696 8.86191 6.86194C8.98693 6.73691 9.1565 6.66668 9.33331 6.66668Z"
        fill="#BDBDBD" />
</svg>