<svg class="section__temp-fondo" xmlns="http://www.w3.org/2000/svg" width="596" height="267"
    viewBox="0 0 596 267" fill="none">
    <g style="mix-blend-mode:multiply" opacity="0.1">
        <path
            d="M596 0.35493V275.744H0V57.9232C3.4568 57.1291 7.04869 56.7116 10.728 56.7116C32.5337 56.7116 51.105 71.382 58.1617 91.9058C59.6318 91.4883 61.1814 91.2509 62.7787 91.2509C71.0829 91.2509 78.0283 97.3909 79.8084 105.618C85.8081 103.416 92.237 102.205 98.936 102.205C126.026 102.205 148.801 121.754 155.405 148.271C161.278 145.733 167.699 144.325 174.429 144.325C184.18 144.325 193.271 147.264 200.987 152.339C206.709 143.432 216.348 137.587 227.275 137.587C237.184 137.587 246.021 142.401 251.846 149.933C257.758 143.858 265.808 140.117 274.692 140.117C281.868 140.117 288.512 142.565 293.915 146.715C303.841 119.691 328.603 100.526 357.6 100.526C371.777 100.526 384.952 105.111 395.871 112.945C402.205 99.5931 415.245 90.4159 430.312 90.4159C436.86 90.4159 443.027 92.1514 448.422 95.2132C453.62 77.3091 469.338 64.3006 487.925 64.3006C489.546 64.3006 491.152 64.407 492.725 64.6035C493.416 41.9839 510.923 23.8669 532.427 23.8669C537.997 23.8669 543.29 25.0867 548.105 27.2807C557.276 11.104 573.988 0.28125 593.084 0.28125C594.061 0.28125 595.031 0.30581 596 0.371303V0.35493Z"
            fill="#9F9F9F" />
    </g>
</svg>