<svg xmlns="http://www.w3.org/2000/svg" width="16" height="16" viewBox="0 0 16 16" fill="none">
    <path
        d="M2.66667 11V13.3333C2.66667 13.687 2.80714 14.0261 3.05719 14.2762C3.30724 14.5262 3.64638 14.6667 4 14.6667H12C12.3536 14.6667 12.6928 14.5262 12.9428 14.2762C13.1929 14.0261 13.3333 13.687 13.3333 13.3333V11M2 9.33334V8.66668C2 8.31305 2.14048 7.97392 2.39052 7.72387C2.64057 7.47382 2.97971 7.33334 3.33333 7.33334H12.6667C13.0203 7.33334 13.3594 7.47382 13.6095 7.72387C13.8595 7.97392 14 8.31305 14 8.66668V9.33334M8 5.33334V7.33334M8 5.33334C8.84133 5.33334 9.33333 4.68801 9.33333 3.58334C9.33333 2.47868 8 1.33334 8 1.33334C8 1.33334 6.66667 2.47868 6.66667 3.58334C6.66667 4.68801 7.15867 5.33334 8 5.33334Z"
        stroke="#448a26" stroke-linecap="round" stroke-linejoin="round" />
    <path
        d="M2 9.33334C2 9.86378 2.21071 10.3725 2.58579 10.7476C2.96086 11.1226 3.46957 11.3333 4 11.3333C4.53043 11.3333 5.03914 11.1226 5.41421 10.7476C5.78929 10.3725 6 9.86378 6 9.33334C6 9.86378 6.21071 10.3725 6.58579 10.7476C6.96086 11.1226 7.46957 11.3333 8 11.3333C8.53043 11.3333 9.03914 11.1226 9.41421 10.7476C9.78929 10.3725 10 9.86378 10 9.33334C10 9.86378 10.2107 10.3725 10.5858 10.7476C10.9609 11.1226 11.4696 11.3333 12 11.3333C12.5304 11.3333 13.0391 11.1226 13.4142 10.7476C13.7893 10.3725 14 9.86378 14 9.33334"
        stroke="#448a26" stroke-linecap="round" stroke-linejoin="round" />
</svg>