<svg width="68" height="68" viewBox="0 0 68 68" fill="none" xmlns="http://www.w3.org/2000/svg">
<path d="M59.5 53.8333V14.1667C59.5 11.05 56.95 8.5 53.8333 8.5H14.1667C11.05 8.5 8.5 11.05 8.5 14.1667V53.8333C8.5 56.95 11.05 59.5 14.1667 59.5H53.8333C56.95 59.5 59.5 56.95 59.5 53.8333ZM25.2167 39.61L31.1667 46.7783L39.95 35.4733C40.5167 34.7367 41.65 34.7367 42.2167 35.5017L52.1617 48.7617C52.3195 48.9721 52.4156 49.2224 52.4393 49.4844C52.4629 49.7465 52.4131 50.0099 52.2954 50.2452C52.1778 50.4805 51.9969 50.6784 51.7731 50.8168C51.5493 50.9551 51.2914 51.0283 51.0283 51.0283H17.0567C15.8667 51.0283 15.215 49.6683 15.9517 48.7333L23.0067 39.6667C23.545 38.93 24.6217 38.9017 25.2167 39.61Z" fill="#E5E9ED"/>
</svg>
